Normalized EMG Linear Envelopes
nRows=21
nColumns=17

endheader
time	        VM	        VL	        RF	       GRA	        TA	   ADDLONG	   SEMIMEM	      BFLH	        GM	        GL	       TFL	   GLUTMAX	   GLUTMED	      PIRI	    OBTINT	        QF	
2.08	  0.045732	  0.032517	  0.141992	  0.130354	  0.261314	  0.016183	  0.007132	  0.013635	  0.015926	  0.014361	  0.096464	  0.016381	  0.079463	  0.434371	  0.968704	  0.183503	
2.0805	  0.045211	  0.032701	  0.142693	  0.127854	  0.261507	  0.015927	  0.006937	  0.013225	  0.015813	  0.014285	  0.094871	  0.016352	  0.079748	  0.433683	  0.976215	  0.185396	
2.081	  0.044694	  0.032889	  0.143406	  0.125372	  0.261672	  0.015675	  0.006752	  0.012820	  0.015699	  0.014208	  0.093296	  0.016325	  0.080033	  0.432939	  0.983728	  0.187286	
2.0815	  0.044179	  0.033080	  0.144130	  0.122910	  0.261807	  0.015429	  0.006580	  0.012422	  0.015582	  0.014131	  0.091737	  0.016300	  0.080319	  0.432140	  0.991239	  0.189172	
2.082	  0.043668	  0.033274	  0.144866	  0.120469	  0.261913	  0.015188	  0.006419	  0.012029	  0.015464	  0.014053	  0.090195	  0.016277	  0.080606	  0.431288	  0.998745	  0.191051	
2.0825	  0.043159	  0.033471	  0.145612	  0.118048	  0.261987	  0.014951	  0.006270	  0.011643	  0.015343	  0.013975	  0.088669	  0.016257	  0.080894	  0.430383	  1.006242	  0.192924	
2.083	  0.042655	  0.033670	  0.146368	  0.115650	  0.262029	  0.014720	  0.006134	  0.011264	  0.015220	  0.013896	  0.087160	  0.016240	  0.081184	  0.429426	  1.013726	  0.194788	
2.0835	  0.042154	  0.033872	  0.147132	  0.113274	  0.262037	  0.014493	  0.006010	  0.010893	  0.015096	  0.013817	  0.085667	  0.016225	  0.081475	  0.428418	  1.021194	  0.196643	
2.084	  0.041657	  0.034076	  0.147905	  0.110922	  0.262010	  0.014272	  0.005899	  0.010529	  0.014969	  0.013737	  0.084191	  0.016212	  0.081768	  0.427359	  1.028640	  0.198486	
2.0845	  0.041164	  0.034282	  0.148686	  0.108594	  0.261948	  0.014055	  0.005802	  0.010173	  0.014841	  0.013657	  0.082730	  0.016203	  0.082064	  0.426250	  1.036063	  0.200318	
2.085	  0.040676	  0.034490	  0.149473	  0.106291	  0.261848	  0.013844	  0.005719	  0.009825	  0.014710	  0.013576	  0.081286	  0.016195	  0.082361	  0.425092	  1.043458	  0.202135	
2.0855	  0.040192	  0.034699	  0.150266	  0.104013	  0.261709	  0.013638	  0.005649	  0.009486	  0.014578	  0.013494	  0.079858	  0.016191	  0.082661	  0.423885	  1.050823	  0.203938	
2.086	  0.039713	  0.034909	  0.151065	  0.101763	  0.261531	  0.013437	  0.005594	  0.009157	  0.014443	  0.013412	  0.078445	  0.016189	  0.082963	  0.422629	  1.058153	  0.205725	
2.0865	  0.039239	  0.035120	  0.151867	  0.099539	  0.261312	  0.013240	  0.005554	  0.008837	  0.014307	  0.013329	  0.077048	  0.016190	  0.083268	  0.421326	  1.065447	  0.207496	
2.087	  0.038770	  0.035331	  0.152673	  0.097342	  0.261052	  0.013049	  0.005528	  0.008527	  0.014169	  0.013246	  0.075667	  0.016194	  0.083575	  0.419974	  1.072702	  0.209249	
2.0875	  0.038306	  0.035544	  0.153482	  0.095174	  0.260750	  0.012863	  0.005518	  0.008227	  0.014029	  0.013162	  0.074301	  0.016202	  0.083886	  0.418574	  1.079916	  0.210983	
2.088	  0.037848	  0.035757	  0.154293	  0.093035	  0.260405	  0.012682	  0.005524	  0.007938	  0.013887	  0.013077	  0.072950	  0.016212	  0.084199	  0.417128	  1.087087	  0.212698	
2.0885	  0.037395	  0.035970	  0.155104	  0.090925	  0.260015	  0.012506	  0.005546	  0.007661	  0.013743	  0.012992	  0.071614	  0.016225	  0.084515	  0.415634	  1.094212	  0.214393	
2.089	  0.036948	  0.036184	  0.155917	  0.088844	  0.259581	  0.012335	  0.005585	  0.007395	  0.013597	  0.012906	  0.070293	  0.016242	  0.084834	  0.414094	  1.101292	  0.216066	
2.0895	  0.036507	  0.036397	  0.156729	  0.086794	  0.259102	  0.012169	  0.005641	  0.007141	  0.013449	  0.012820	  0.068988	  0.016262	  0.085157	  0.412508	  1.108323	  0.217718	
2.09	  0.036071	  0.036611	  0.157541	  0.084775	  0.258577	  0.012008	  0.005714	  0.006900	  0.013299	  0.012733	  0.067696	  0.016286	  0.085482	  0.410876	  1.115305	  0.219347	
